<?xml version="1.0" standalone="no"?>
<!DOCTYPE svg PUBLIC "-//W3C//DTD SVG 20010904//EN"
 "http://www.w3.org/TR/2001/REC-SVG-20010904/DTD/svg10.dtd">
<svg version="1.0" xmlns="http://www.w3.org/2000/svg"
 width="480.000000pt" height="480.000000pt" viewBox="0 0 480.000000 480.000000"
 preserveAspectRatio="xMidYMid meet">

<g transform="translate(0.000000,480.000000) scale(0.100000,-0.100000)"
fill="#000000" stroke="none">
<path d="M2195 4405 c-5 -2 -36 -11 -68 -20 -32 -9 -55 -19 -53 -24 3 -5 38
-11 78 -13 95 -7 173 -41 212 -94 16 -21 49 -60 74 -86 25 -26 43 -51 39 -54
-4 -4 -51 7 -104 25 -113 36 -222 42 -314 15 -75 -22 -191 -86 -266 -146 -55
-45 -253 -266 -253 -283 0 -4 21 5 47 19 25 15 48 24 51 22 2 -3 -30 -47 -71
-98 -41 -51 -73 -95 -71 -97 2 -2 22 8 44 23 59 39 66 32 25 -28 -13 -20 -22
-36 -20 -36 3 0 -4 -22 -14 -49 -31 -78 -52 -198 -58 -326 -6 -132 -20 -177
-96 -305 l-39 -65 42 43 c23 23 46 42 51 42 5 0 9 6 9 13 1 19 58 83 67 74 7
-8 -38 -106 -76 -167 -18 -28 -41 -90 -34 -90 7 0 116 92 168 142 l40 37 -3
-102 c-4 -122 15 -428 27 -440 5 -5 28 23 54 68 25 42 47 73 50 68 2 -4 15
-48 27 -98 13 -49 26 -93 29 -97 4 -4 7 23 7 60 0 258 15 372 63 477 5 11 21
60 36 109 14 48 29 86 31 83 3 -3 -10 -77 -29 -164 -20 -87 -43 -196 -52 -243
-10 -46 -21 -95 -26 -107 -13 -35 2 -28 56 27 26 27 52 47 56 45 3 -3 19 5 34
17 22 17 31 19 46 10 28 -18 32 -15 27 19 -4 25 0 33 24 45 l28 15 0 -36 c0
-27 4 -34 18 -33 57 5 72 -16 21 -30 l-31 -8 40 -36 c78 -70 169 -73 235 -7
l38 38 -21 41 c-19 37 -19 41 -4 32 23 -13 45 8 37 37 -5 19 -2 21 18 17 19
-4 31 3 59 39 19 24 38 44 41 44 3 1 34 -47 70 -106 51 -86 65 -103 67 -85 3
19 15 3 59 -75 30 -54 62 -106 71 -116 16 -18 17 -18 23 0 4 10 8 45 9 78 2
62 16 174 19 142 3 -41 42 -99 78 -113 91 -38 203 43 203 147 0 16 4 29 9 29
18 0 33 -30 27 -55 -9 -35 11 -32 57 10 20 18 37 30 37 24 0 -5 -9 -51 -20
-102 -20 -91 -32 -233 -18 -219 8 9 58 232 58 263 1 23 1 23 12 5 7 -13 9 -62
6 -145 -5 -112 -4 -122 7 -86 7 22 27 67 43 101 56 113 90 237 104 384 4 35
21 31 28 -6 10 -45 20 -60 31 -43 5 8 9 24 9 37 0 33 12 28 65 -29 26 -28 48
-49 50 -47 2 2 -8 27 -21 56 -37 80 -81 249 -99 374 -8 61 -24 147 -36 191
-11 43 -18 81 -15 84 12 13 31 -16 114 -179 23 -46 22 -32 -5 55 -34 112 -97
269 -135 336 -122 219 -322 379 -572 457 l-89 27 -86 -18 c-47 -10 -108 -20
-136 -22 -27 -3 -55 -9 -61 -14 -8 -7 -15 7 -22 50 -16 90 -43 134 -119 191
-36 27 -74 50 -83 50 -10 0 -30 2 -46 5 -16 2 -33 2 -39 0z m842 -1387 c82
-129 90 -145 71 -151 -7 -2 -5 -3 4 -2 11 2 29 -17 52 -57 20 -33 36 -62 36
-64 0 -3 -10 1 -22 7 -37 20 -166 15 -230 -8 l-58 -21 2 38 c1 22 4 43 7 48 3
5 42 19 86 30 44 12 69 21 55 21 -14 1 -47 -6 -74 -14 -27 -8 -54 -15 -59 -15
-6 0 -7 44 -2 118 5 96 11 123 28 149 12 18 24 33 27 33 3 0 37 -51 77 -112z
m-594 -61 c42 -78 75 -147 73 -154 -3 -8 -24 -4 -70 13 -36 13 -96 28 -133 35
-37 6 -73 13 -80 15 -7 1 14 46 53 110 35 59 64 111 64 115 0 27 23 -6 93
-134z m837 -214 c0 -35 -4 -63 -8 -63 -5 0 -18 19 -29 43 -20 39 -103 255
-103 266 0 2 31 -38 70 -90 68 -92 69 -95 70 -156z m-977 98 c88 -16 197 -50
197 -63 0 -5 -10 -28 -22 -49 -20 -36 -23 -38 -42 -26 -55 35 -123 52 -208 52
-49 0 -88 2 -88 5 0 3 16 27 36 53 24 33 40 47 52 43 9 -3 43 -10 75 -15z
m592 -222 c-4 -6 2 -13 14 -16 21 -5 30 -23 12 -23 -5 0 -16 -3 -25 -6 -13 -5
-16 1 -16 25 0 17 5 31 11 31 5 0 7 -5 4 -11z m-610 -53 c28 -12 34 -20 32
-38 -5 -30 -64 -47 -102 -30 -25 11 -25 13 -11 41 13 24 24 35 44 40 1 1 18
-6 37 -13z m747 -3 c23 -21 23 -40 -1 -53 -33 -17 -69 -12 -82 12 -10 18 -8
24 12 39 30 23 47 24 71 2z"/>
<path d="M2203 2453 c9 -2 23 -2 30 0 6 3 -1 5 -18 5 -16 0 -22 -2 -12 -5z"/>
<path d="M1890 2295 c0 -5 5 -17 10 -25 5 -8 10 -10 10 -5 0 6 -5 17 -10 25
-5 8 -10 11 -10 5z"/>
<path d="M1798 2253 c12 -2 32 -2 45 0 12 2 2 4 -23 4 -25 0 -35 -2 -22 -4z"/>
<path d="M1994 2074 c0 -9 13 -30 28 -46 17 -18 25 -35 21 -45 -5 -12 -3 -14
6 -8 10 6 11 2 6 -15 -5 -15 -4 -20 4 -16 12 8 15 -6 4 -17 -3 -4 -16 7 -28
23 l-22 30 -12 -28 c-10 -23 -9 -24 2 -10 12 15 14 15 25 -3 10 -16 10 -20 0
-18 -7 1 -26 -3 -42 -10 -16 -6 -36 -9 -44 -6 -7 3 -43 -11 -78 -30 -35 -19
-72 -35 -83 -35 -11 0 -50 -16 -85 -35 -36 -19 -74 -35 -86 -35 -11 0 -20 -4
-20 -9 0 -5 -18 -11 -40 -15 -22 -3 -40 -10 -40 -16 0 -5 -16 -17 -35 -26 -30
-14 -38 -14 -53 -3 -9 7 -3 -2 13 -20 32 -35 83 -66 93 -57 3 3 1 6 -4 7 -5 0
11 7 36 14 162 49 196 61 208 72 7 7 18 13 23 13 6 0 7 5 4 10 -3 6 -2 10 2
10 5 0 22 12 40 28 17 15 39 34 49 42 24 20 167 90 182 90 8 0 12 -19 12 -54
0 -49 -2 -55 -22 -59 l-23 -4 23 -2 c13 0 23 -8 24 -18 1 -10 4 25 7 77 l6 95
-49 73 c-26 39 -49 72 -51 72 -2 0 -2 -7 -1 -16z"/>
<path d="M3075 2039 c-4 -6 -5 -12 -2 -15 2 -3 7 2 10 11 7 17 1 20 -8 4z"/>
<path d="M3040 1979 c-7 -11 -10 -23 -7 -25 2 -2 9 7 15 21 14 30 7 33 -8 4z"/>
<path d="M2171 1823 c67 -100 104 -150 84 -113 -22 40 -136 210 -146 215 -5 4
23 -42 62 -102z"/>
<path d="M2973 1839 l-39 -92 43 -40 c24 -22 46 -38 49 -35 9 10 146 -52 188
-84 22 -18 34 -24 26 -13 -11 14 -2 12 40 -12 30 -17 54 -36 53 -42 -2 -5 14
-2 35 7 61 29 82 42 82 54 0 7 -5 6 -15 -2 -12 -10 -23 -3 -62 36 -26 25 -64
58 -83 73 -19 14 -37 28 -40 31 -12 13 -91 60 -99 60 -6 0 -31 11 -57 25 -56
30 -54 29 -55 8 0 -12 -2 -13 -6 -5 -3 7 1 20 8 30 7 9 9 13 4 9 -5 -4 -14 2
-20 14 -11 19 -13 19 -18 5 -4 -10 -3 -15 3 -11 6 3 10 -5 10 -19 0 -14 -4
-27 -9 -30 -5 -4 -7 2 -4 13 3 10 0 22 -6 25 -7 4 -6 16 1 37 8 23 13 27 19
17 5 -7 9 -8 9 -3 0 6 -4 16 -9 23 -5 9 -21 -16 -48 -79z"/>
<path d="M1332 1805 c0 -16 2 -22 5 -12 2 9 2 23 0 30 -3 6 -5 -1 -5 -18z"/>
<path d="M3430 1778 c0 -9 -5 -18 -12 -20 -14 -5 19 -63 52 -93 25 -22 25 -32
3 -59 -10 -11 7 0 37 25 30 26 55 53 56 60 0 8 -1 9 -3 2 -8 -23 -28 -20 -29
4 -2 28 -29 57 -65 68 -13 4 -27 13 -31 19 -5 7 -8 5 -8 -6z"/>
<path d="M1970 1750 c-19 -16 -41 -29 -47 -30 -7 0 -13 -4 -13 -10 0 -20 23
-9 62 30 48 47 46 52 -2 10z"/>
<path d="M1360 1750 c6 -11 13 -20 16 -20 2 0 0 9 -6 20 -6 11 -13 20 -16 20
-2 0 0 -9 6 -20z"/>
<path d="M3572 1740 c0 -14 2 -19 5 -12 2 6 2 18 0 25 -3 6 -5 1 -5 -13z"/>
<path d="M2280 1665 c13 -14 25 -25 27 -25 9 0 -33 49 -41 50 -5 0 1 -11 14
-25z"/>
<path d="M2050 1641 c0 -6 4 -13 10 -16 6 -3 7 1 4 9 -7 18 -14 21 -14 7z"/>
<path d="M2315 1620 c3 -5 8 -10 11 -10 2 0 4 5 4 10 0 6 -5 10 -11 10 -5 0
-7 -4 -4 -10z"/>
<path d="M2076 1597 c3 -10 9 -15 12 -12 3 3 0 11 -7 18 -10 9 -11 8 -5 -6z"/>
<path d="M2346 1587 c3 -10 9 -15 12 -12 3 3 0 11 -7 18 -10 9 -11 8 -5 -6z"/>
<path d="M2096 1557 c3 -10 9 -15 12 -12 3 3 0 11 -7 18 -10 9 -11 8 -5 -6z"/>
<path d="M2851 1535 c0 -31 2 -36 9 -23 6 10 7 25 1 40 -9 20 -10 18 -10 -17z"/>
<path d="M2405 1510 c10 -11 20 -20 23 -20 3 0 -3 9 -13 20 -10 11 -20 20 -23
20 -3 0 3 -9 13 -20z"/>
<path d="M2170 1465 c0 -4 11 -20 25 -37 14 -16 25 -26 25 -23 0 4 -11 20 -25
37 -14 16 -25 26 -25 23z"/>
<path d="M2000 1424 c59 -26 80 -34 80 -28 0 6 -88 44 -103 44 -7 -1 4 -8 23
-16z"/>
<path d="M2716 1405 c-11 -8 -15 -15 -9 -15 6 0 16 7 23 15 16 19 11 19 -14 0z"/>
<path d="M2806 1393 c-6 -14 -5 -15 5 -6 7 7 10 15 7 18 -3 3 -9 -2 -12 -12z"/>
<path d="M2510 1390 c8 -5 22 -9 30 -9 10 0 8 3 -5 9 -27 12 -43 12 -25 0z"/>
<path d="M2648 1383 c6 -2 18 -2 25 0 6 3 1 5 -13 5 -14 0 -19 -2 -12 -5z"/>
<path d="M2767 1324 c-15 -25 -27 -48 -27 -52 0 -4 14 15 31 42 17 26 29 50
27 52 -2 1 -16 -17 -31 -42z"/>
<path d="M2284 1332 c17 -17 26 -32 20 -32 -5 -1 4 -8 19 -16 16 -9 30 -14 31
-12 1 2 -21 23 -48 48 -32 28 -40 32 -22 12z"/>
<path d="M2692 1203 c-47 -71 -59 -92 -44 -78 14 13 93 135 87 135 -2 0 -22
-26 -43 -57z"/>
<path d="M1218 1183 c6 -2 18 -2 25 0 6 3 1 5 -13 5 -14 0 -19 -2 -12 -5z"/>
<path d="M1485 1120 c-8 -12 20 -24 35 -15 5 3 10 10 10 16 0 12 -37 12 -45
-1z"/>
<path d="M2572 1095 c15 -16 20 -17 30 -6 11 11 10 13 0 7 -7 -4 -21 -2 -30 5
-15 12 -15 11 0 -6z"/>
<path d="M1294 1076 c-15 -12 -17 -17 -6 -27 18 -19 15 -26 -24 -53 -30 -20
-41 -23 -60 -14 -38 18 -54 4 -54 -46 0 -56 29 -97 57 -80 10 6 20 24 23 40 4
22 16 34 50 51 25 12 54 20 66 18 13 -3 28 3 39 15 16 18 16 21 -5 65 -24 49
-49 58 -86 31z"/>
<path d="M2018 1063 c12 -2 32 -2 45 0 12 2 2 4 -23 4 -25 0 -35 -2 -22 -4z"/>
<path d="M1558 1043 c-23 -6 -32 -42 -19 -76 8 -21 17 -27 40 -27 33 0 43 17
34 60 -6 33 -27 49 -55 43z"/>
</g>
</svg>
